<svg xmlns="http://www.w3.org/2000/svg" viewBox="0 0 64 64" id="online-test"><g data-name="Layer 25"><path d="M45,40a1,1,0,0,0-1,1V56.9375A3.0662,3.0662,0,0,1,40.9375,60H7.0625A3.0662,3.0662,0,0,1,4,56.9375V7.0625A3.0662,3.0662,0,0,1,7.0625,4h33.875A3.0662,3.0662,0,0,1,44,7.0625V23a1,1,0,0,0,2,0V7.0625A5.0688,5.0688,0,0,0,40.9375,2H7.0625A5.0688,5.0688,0,0,0,2,7.0625v49.875A5.0688,5.0688,0,0,0,7.0625,62h33.875A5.0688,5.0688,0,0,0,46,56.9375V41A1,1,0,0,0,45,40Z"></path><path d="M42,50.7871V9.2129A3.2167,3.2167,0,0,0,38.7871,6H9.2129A3.2167,3.2167,0,0,0,6,9.2129V50.7871A3.2167,3.2167,0,0,0,9.2129,54H38.7871A3.2167,3.2167,0,0,0,42,50.7871Zm-34,0V9.2129A1.214,1.214,0,0,1,9.2129,8H38.7871A1.214,1.214,0,0,1,40,9.2129V50.7871A1.214,1.214,0,0,1,38.7871,52H9.2129A1.214,1.214,0,0,1,8,50.7871Z"></path><circle cx="24" cy="57.064" r="1.5"></circle><path d="M54,23.059v-1.57h.585a1,1,0,0,0,0-2h-3.17a1,1,0,0,0,0,2H52v1.57a9,9,0,1,0,2,0ZM53,39a7,7,0,1,1,7-7A7.0085,7.0085,0,0,1,53,39Z"></path><path d="M55.4629,28.123l-3.17,3.17a1,1,0,1,0,1.414,1.414l3.17-3.17a1,1,0,1,0-1.4141-1.4141Z"></path><circle cx="24" cy="23.954" r="1"></circle><path d="M12.44,35.9355a.9994.9994,0,0,0,1-1V30.957H17.418a1,1,0,0,0,0-2H12.44a.9994.9994,0,0,0-1,1v4.9785A.9993.9993,0,0,0,12.44,35.9355Z"></path><path d="M20.36 30.5791L17.418 33.5215l-1.1758-1.1758A1 1 0 0014.8281 33.76l1.8828 1.8828a1 1 0 001.4141 0l3.6494-3.6494a1 1 0 10-1.414-1.4141zM25.9072 35.2881h7.0635a1 1 0 100-2H25.9072a1 1 0 000 2zM35.5605 29.582H25.9072a1 1 0 100 2h9.6533a1 1 0 000-2zM17.418 40.9248H12.44a.9994.9994 0 00-1 1v4.9785a.9993.9993 0 001 1H17.418a.9994.9994 0 001-1V41.9248A1 1 0 0017.418 40.9248zm-1 4.9785H13.44V42.9248H16.418zM32.9707 45.2666H25.9072a1 1 0 000 2h7.0635a1 1 0 100-2zM35.5605 41.5615H25.9072a1 1 0 100 2h9.6533a1 1 0 000-2zM24.3965 14.1416a1.6157 1.6157 0 011.19 1.1885 1.6341 1.6341 0 01-.5693 1.6748A5.1212 5.1212 0 0023 20.9736v.2422a1 1 0 002 0v-.2422a3.1378 3.1378 0 011.2656-2.4062 3.6379 3.6379 0 001.2705-3.6826 3.6337 3.6337 0 00-7.1679.8437 1 1 0 002 0 1.626 1.626 0 01.6152-1.2764A1.6455 1.6455 0 0124.3965 14.1416z"></path></g></svg>